<svg id="Layer_1" data-name="Layer 1" xmlns="http://www.w3.org/2000/svg" viewBox="0 0 1569.12 792.49"><defs><style>.cls-1{fill:#0086ea;}.cls-2{fill:#ee282a;}</style></defs><path class="cls-1" d="M970.21,610.15l180,180a8,8,0,0,0,5.63,2.32h225a7.94,7.94,0,0,0,5.62-13.57L1094,486.38l180-180a8,8,0,0,0,0-11.25L1161.48,182.61a8,8,0,0,0-11.25,0L666.42,666.41a8,8,0,0,0,0,11.25l112.52,112.5a8,8,0,0,0,11.25,0Z"/><path class="cls-2" d="M959.21,2.33,784.57,177,609.91,2.33A8,8,0,0,0,604.28,0h-225a8,8,0,0,0-5.63,13.59L660.8,300.75l-61.88,61.88L238.62,2.33A8,8,0,0,0,233,0H8A8,8,0,0,0,2.35,13.59L593.29,604.53a8,8,0,0,0,11.26,0L1195.49,13.59A8,8,0,0,0,1189.86,0h-225a8,8,0,0,0-5.64,2.33"/><path class="cls-2" d="M1330.5,2.33,1223.36,109.47a8,8,0,0,0,0,11.26l112.51,112.51a8,8,0,0,0,11.24,0L1566.78,13.59A8,8,0,0,0,1561.15,0h-225a8,8,0,0,0-5.63,2.33"/></svg>