<?xml version="1.0" encoding="UTF-8" standalone="no"?>
<!-- Created with Inkscape (http://www.inkscape.org/) -->

<svg
   width="128mm"
   height="128mm"
   viewBox="0 0 128 128"
   version="1.1"
   id="svg1240"
   inkscape:version="1.1 (c4e8f9e, 2021-05-24)"
   sodipodi:docname="swiftcurrent-logo.svg"
   xmlns:inkscape="http://www.inkscape.org/namespaces/inkscape"
   xmlns:sodipodi="http://sodipodi.sourceforge.net/DTD/sodipodi-0.dtd"
   xmlns="http://www.w3.org/2000/svg"
   xmlns:svg="http://www.w3.org/2000/svg">
  <sodipodi:namedview
     id="namedview1242"
     pagecolor="#ffffff"
     bordercolor="#666666"
     borderopacity="1.0"
     inkscape:pageshadow="2"
     inkscape:pageopacity="0.0"
     inkscape:pagecheckerboard="0"
     inkscape:document-units="mm"
     showgrid="false"
     inkscape:zoom="1"
     inkscape:cx="388.5"
     inkscape:cy="260.5"
     inkscape:window-width="2080"
     inkscape:window-height="1081"
     inkscape:window-x="0"
     inkscape:window-y="25"
     inkscape:window-maximized="0"
     inkscape:current-layer="path1067-3-7_2_-55"
     showguides="true"
     inkscape:guide-bbox="true" />
  <defs
     id="defs1237">
    <rect
       x="21.858917"
       y="18.001461"
       width="756.06134"
       height="1091.66"
       id="rect4412" />
  </defs>
  <g
     inkscape:label="Layer 1"
     inkscape:groupmode="layer"
     id="layer1">
    <g
       id="g1379"
       transform="translate(8.2020833,8.2020833)">
      <g
         id="path1067-3-7_2_-55"
         transform="matrix(0.18708867,0.18708867,-0.18708867,0.18708867,141.19906,-221.54293)"
         style="fill:#0086ea;fill-opacity:1">
        <path
           id="path1052-4"
           style="fill:#0086ea;fill-opacity:1;stroke-width:0.999999"
           d="m 388.59482,986.22069 75.27568,-20.25612 75.91474,-20.47109 c -18.70777,27.93943 -37.75034,59.63642 -52.101,83.24202 l 7.27427,25.4512 -72.70462,-33.4116 c -7.10336,-3.263 -14.48918,3.9512 -11.39443,11.1293 l 23.07157,53.5117 -13.50898,13.3853 c -3.71261,-1.903 -7.90274,-2.9863 -12.32801,-2.9863 -14.97376,0 -27.29191,12.3239 -27.29477,27.2948 -3e-5,14.9737 12.31807,27.292 27.29183,27.2918 14.97391,2e-4 27.29781,-12.318 27.29479,-27.2947 -3e-5,-4.3852 -1.06249,-8.5403 -2.93326,-12.2279 l 17.61433,-17.4437 c 2.4959,-2.4657 3.21551,-6.2145 1.82593,-9.436 l -16.57775,-38.4477 69.37378,31.8773 c 6.62371,3.0417 13.76487,-3.0872 11.76257,-10.0956 l -9.54787,-39.9055 33.51769,-23.5105 40.30311,-27.72176 0.42701,-0.215 0.21197,-0.21196 c 14.71392,-11.08872 40.7292,-32.62682 50.32514,-51.17922 7.6769,-14.92704 9.59854,-41.58291 10.02496,-53.31144 l 9.16796,-15.78256 16.84575,-28.36092 -32.62535,2.77426 -19.61703,1.7052 -4.69148,0.42701 -3.8433,2.77132 -25.15964,17.91478 c -2.55884,-0.42642 -5.54219,-0.64197 -8.74092,-0.64203 -8.10331,2e-5 -15.56874,1.49271 -22.17922,4.69149 -13.64775,6.39728 -76.12932,57.78906 -102.3584,79.54011 z m 71.01419,-37.31685 c 0,0 85.50882,-71.0118 98.73008,-77.19583 5.11781,-2.34574 10.44729,-3.19844 14.92556,-3.19834 7.25022,-8e-5 12.58128,1.92019 12.58128,1.92019 l 31.3472,-22.1763 19.19294,-1.49315 -11.3002,19.40499 c 0,0 -0.63994,35.61133 -8.31685,50.32515 -8.74304,16.84633 -37.53155,39.45076 -45.42162,45.4216 l -40.30309,27.72184 c 1.27958,-2.5589 24.73486,-36.676 26.44073,-41.15423 6.39741,-13.22112 8.10478,-28.14886 8.10478,-28.14886 z m -58.78925,166.93176 c 1.83912,-1.84 4.39433,-2.9598 7.27136,-2.9598 5.75418,2e-4 10.23983,4.4858 10.23996,10.24 -3e-5,5.7541 -4.48305,10.2311 -10.23407,10.2341 -5.75406,0 -10.23412,-4.48 -10.23407,-10.2341 0,-2.877 1.12079,-5.437 2.95977,-7.2772 z"
           sodipodi:nodetypes="cccccccccscscccccccccccccccccccccscccccscccccccccccsscscc" />
      </g>
      <g
         aria-label="SwiftCurrent "
         transform="matrix(0.26458333,0,0,0.26458333,-0.51471747,-4.7270873)"
         id="text4410"
         style="font-size:40px;line-height:1.25;white-space:pre;shape-inside:url(#rect4412);fill:#0086ea" />
    </g>
  </g>
</svg>
