<?xml version="1.0" encoding="UTF-8" standalone="no"?>
<!-- Created with Inkscape (http://www.inkscape.org/) -->

<svg
   width="190mm"
   height="38mm"
   viewBox="0 0 190 38"
   version="1.1"
   id="svg1240"
   inkscape:version="1.1 (c4e8f9e, 2021-05-24)"
   sodipodi:docname="swiftcurrent-logo-subtext.svg"
   xmlns:inkscape="http://www.inkscape.org/namespaces/inkscape"
   xmlns:sodipodi="http://sodipodi.sourceforge.net/DTD/sodipodi-0.dtd"
   xmlns="http://www.w3.org/2000/svg"
   xmlns:svg="http://www.w3.org/2000/svg">
  <sodipodi:namedview
     id="namedview1242"
     pagecolor="#ffffff"
     bordercolor="#666666"
     borderopacity="1.0"
     inkscape:pageshadow="2"
     inkscape:pageopacity="0.0"
     inkscape:pagecheckerboard="0"
     inkscape:document-units="mm"
     showgrid="false"
     inkscape:zoom="1.4142136"
     inkscape:cx="418.96077"
     inkscape:cy="58.336309"
     inkscape:window-width="2080"
     inkscape:window-height="1081"
     inkscape:window-x="214"
     inkscape:window-y="176"
     inkscape:window-maximized="0"
     inkscape:current-layer="layer1"
     showguides="true"
     inkscape:guide-bbox="true" />
  <defs
     id="defs1237">
    <rect
       x="-41"
       y="-209"
       width="825.61732"
       height="64.93622"
       id="rect1597" />
    <rect
       x="21.858917"
       y="18.001461"
       width="756.06134"
       height="1091.66"
       id="rect4412" />
  </defs>
  <g
     inkscape:label="Layer 1"
     inkscape:groupmode="layer"
     id="layer1">
    <g
       id="g1379"
       transform="translate(8.2020833,8.2020833)">
      <g
         id="path1067-3-7_2_-55"
         transform="matrix(0.18708867,0.18708867,-0.18708867,0.18708867,141.19906,-221.54293)"
         style="fill:#0086ea;fill-opacity:1">
        <path
           id="path1052-4"
           style="fill:#0086ea;fill-opacity:1"
           d="m 81.71875,49.3125 c -11.434661,0 -21.929688,6.741359 -21.929688,16.554688 0,20.991991 32.511719,10.154184 32.511719,26.964843 0,8.447999 -7.851295,12.287109 -16.640625,12.287109 -10.922662,0 -16.72489,-5.801722 -16.21289,-14.761718 h -5.716797 c -1.536,12.031998 7.508178,20.052738 21.076172,20.052738 12.117328,0 23.722656,-6.74126 23.722656,-17.919926 0,-21.930656 -32.681641,-10.240263 -32.681641,-26.794922 0,-6.99733 6.911519,-11.09375 15.103516,-11.09375 9.471996,0 15.274322,4.779874 14.847656,12.033204 h 5.718752 C 102.11491,56.13877 94.177412,49.3125 81.71875,49.3125 Z m 95.93359,0 -1.70703,8.703125 h 6.48633 l 1.70703,-8.703125 z m 35.38868,0 c -7.76533,0 -13.65346,4.94877 -15.18946,12.884766 l -0.85351,4.523437 h -9.64258 v 4.949219 h 8.70312 l -7.42382,38.058598 h 5.37695 l 7.42383,-38.058598 h 14.16601 v -4.949219 h -13.22851 l 0.85351,-4.523437 c 1.024,-4.949331 4.35308,-7.935547 8.70508,-7.935547 h 6.48438 l 1.02539,-4.949219 z m 73.05273,0 c -16.98132,0 -30.9758,9.982857 -34.73047,29.353516 -3.41333,17.407992 8.10642,31.744144 25.34375,31.744144 14.67733,0 25.77012,-8.36165 29.43945,-20.820316 h -12.20117 c -2.21867,6.485331 -8.02178,11.007816 -15.78711,11.007816 -10.83733,0 -18.00531,-7.851932 -15.44531,-21.419926 2.47466,-12.799994 10.92197,-20.138672 21.41797,-20.138672 8.02133,0 13.73978,4.523087 13.39844,11.09375 h 12.37304 C 310.67034,57.759485 300.51508,49.3125 286.09375,49.3125 Z m 321.21875,2.087891 31.67773,18.24414 31.96094,18.384766 c -15.46792,3.061166 -32.29284,7.257287 -44.8789,10.326172 l -6.02735,10.851561 -13.0293,-35.187499 c -1.27345,-3.4374 -6.11474,-3.49429 -7.46874,-0.08789 l -10.09376,25.394531 -8.91796,-0.04102 c -0.60007,-1.8621 -1.63028,-3.610725 -3.09766,-5.078125 -4.96521,-4.9652 -13.13636,-4.9633 -18.10156,0 -4.96521,4.9652 -4.96521,13.134413 0,18.099613 4.9652,4.9653 13.13635,4.9672 18.10156,0 1.45407,-1.4541 2.47961,-3.18424 3.08203,-5.02734 l 11.625,0.0566 c 1.64526,0.01 3.12694,-0.99444 3.73438,-2.52344 l 7.25195,-18.246098 12.43359,33.574218 c 1.18776,3.20501 5.58805,3.54064 7.24805,0.55274 l 10.06641,-16.39844 18.91015,3.31836 22.55664,4.17188 0.21289,0.0703 h 0.14063 c 8.55599,1.2021 24.32439,2.6867 33.6582,-0.2832 7.49533,-2.4041 16.97145,-10.60582 21.00196,-14.353524 l 8.27343,-2.193359 14.99024,-3.81836 -11.73828,-9.898437 -7.07032,-5.939453 -1.69726,-1.414063 -2.19336,-0.355469 -14.28321,-2.402343 c -0.7071,-0.9899 -1.62488,-2.050628 -2.68554,-3.111328 -2.68701,-2.687001 -5.65747,-4.667529 -8.91016,-5.798829 -6.6468,-2.4042 -44.40649,-6.081506 -60.3164,-7.566406 z m -377.00586,1.240234 -2.73047,14.080078 h -9.64453 v 4.949219 h 8.70508 l -5.03516,25.599609 c -1.45067,7.509329 2.47445,12.458989 9.89844,12.458989 h 6.74219 l 0.9375,-4.94922 h -6.82617 c -4.01067,0 -6.22833,-2.9871 -5.375,-7.509769 l 5.0332,-25.599609 h 14.16601 v -4.949219 h -13.22656 l 2.73047,-14.080078 z M 531.94141,53.75 529.38086,66.720703 h -9.30078 v 8.789063 h 7.59375 l -3.83985,19.882812 c -1.792,8.874662 3.32726,14.335942 12.03125,14.335942 h 7.59571 l 1.79101,-8.875 h -6.48437 c -3.24267,0 -5.12016,-2.21874 -4.4375,-5.802739 l 3.83984,-19.541015 h 12.88477 V 66.720703 H 539.87695 L 542.35156,53.75 Z m 111.29297,8.824219 c 0,0 51.90126,4.807125 58.33593,7.140625 2.47487,0.9192 4.52484,2.403672 6.00977,3.888672 2.40416,2.4041 3.53515,4.808593 3.53515,4.808593 l 17.74805,3.041016 6.85938,5.869141 -10.18164,2.6875 c 0,0 -12.0207,11.596284 -19.44532,13.929684 -8.48528,2.687 -25.52685,0.6364 -30.12304,0 l -22.55664,-4.171872 c 1.2728,-0.4242 20.36345,-3.959606 22.41406,-4.878906 6.50538,-2.2627 12.02148,-6.646484 12.02148,-6.646484 z m -194.33985,3.46289 c -12.45866,0 -22.61276,8.534132 -24.74609,21.078125 -2.048,12.117329 4.18098,23.294926 18.43164,23.294926 10.58133,0 19.3715,-6.14292 22.1875,-15.017582 h -10.4961 c -1.792,3.925332 -4.77904,6.314452 -9.98437,6.314452 -6.99733,0 -10.7527,-4.266945 -10.58203,-11.349608 h 31.57422 c 0.256,-0.682667 0.76879,-3.157318 0.93945,-3.583984 2.38934,-11.861328 -4.52422,-20.736329 -17.32422,-20.736329 z m 52.36524,0 c -5.632,0 -11.09328,2.644559 -14.33594,7.337891 l 1.27929,-6.654297 h -10.49609 l -8.36328,43.007817 h 10.49609 l 4.52344,-23.466801 c 1.28,-6.314664 6.22919,-11.007813 12.11719,-11.007813 5.46133,0 8.19136,4.009696 7.08203,10.06836 l -4.77734,24.406254 h 10.41015 l 5.03516,-25.685551 c 2.048,-10.922662 -2.81604,-18.00586 -12.9707,-18.00586 z m -393.97852,0.683594 4.4375,43.007817 h 5.46094 l 18.34765,-36.35352 4.26758,36.35352 h 5.46094 l 21.16211,-43.007817 h -5.46094 l -17.15234,36.351567 -4.18164,-36.351567 h -5.46094 L 115.64453,103.07227 112.6582,66.720703 Z m 67.55469,0 -8.36133,43.007817 h 5.375 l 8.36328,-43.007817 z m 142.61914,0 -4.7793,24.660156 c -2.21867,11.264001 3.32879,19.029301 12.80078,19.029301 5.632,0 11.09327,-2.64456 14.33594,-7.33789 l -1.2793,6.65625 h 10.4961 l 8.36132,-43.007817 h -10.49609 l -4.60742,23.464844 c -1.19466,6.570664 -5.97259,10.923833 -12.03125,10.923833 -5.376,0 -8.10798,-4.437715 -7.08398,-9.98438 l 4.77929,-24.404297 z m 49.41797,0 -8.36133,43.007817 h 10.49609 l 3.92383,-20.310551 c 1.536,-8.191996 5.3772,-13.908203 12.0332,-13.908203 h 7.59375 v -8.789063 h -4.18164 c -5.54666,0 -9.30031,2.132419 -12.54297,7.59375 l 1.53516,-7.59375 z m 32.83398,0 -8.36328,43.007817 h 10.49609 l 3.92578,-20.310551 c 1.536,-8.191996 5.37526,-13.908203 12.03126,-13.908203 h 7.5957 v -8.789063 h -4.18164 c -5.54666,0 -9.30031,2.132419 -12.54297,7.59375 l 1.53515,-7.59375 z m 47.65235,7.167969 c 6.48532,0 9.64165,4.09531 8.95898,9.55664 h -21.33203 c 2.13333,-6.314663 6.57038,-9.55664 12.37305,-9.55664 z m 121.02734,24.544922 c 1.21998,-3e-4 2.43857,0.475687 3.39258,1.429687 1.90801,1.908099 1.90801,4.882919 0,6.791019 -1.90802,1.908 -4.8791,1.906 -6.78711,0 -1.90802,-1.908 -1.90802,-4.87911 0,-6.787112 0.954,-0.954001 2.17454,-1.431241 3.39453,-1.431641 z"
           transform="rotate(-45,1233.7007,348.35352)"
           sodipodi:nodetypes="ssssccssssccscccccsccccccccccccsccsscsccscsccscccccccccscscccccccccccccccccccccscccccccccsccscccccccccccccsccscccccccccsccccccccccscsccscccssccccccsccccscccccccccccccccccccccsccccccscccccccsccscccccccsccscccsccscsscscc" />
      </g>
      <g
         aria-label="SwiftCurrent "
         transform="matrix(0.26458333,0,0,0.26458333,-0.51471747,-4.7270873)"
         id="text4410"
         style="font-size:40px;line-height:1.25;white-space:pre;shape-inside:url(#rect4412);fill:#0086ea" />
      <g
         aria-label="A Workflow Management Library by WWT"
         transform="matrix(0.24747563,0,0,0.24747563,5.3837963,68.536917)"
         id="text1595"
         style="font-size:40px;line-height:1.25;font-family:Roobert;-inkscape-font-specification:'Roobert, Normal';white-space:pre;shape-inside:url(#rect1597);fill:#0086ea;stroke-width:1.06912">
        <path
           d="m -20.44,-172.16 h 2.88 l -5.84,-28 h -2.52 l -16.72,28 h 2.84 l 4.68,-7.96 h 13.16 z m -13.24,-10.44 8.44,-14.4 2.8,14.4 z"
           style="font-style:italic;font-weight:300;-inkscape-font-specification:'Roobert, Light Italic'"
           id="path36675" />
        <path
           d="m 1.58875,-172.16 h 2.72 l 12,-23.92 2.68,23.92 h 2.8 l 14.12,-28 h -2.76 l -12.04,23.92 -2.8,-23.92 h -2.44 l -12.08,23.92 -2.72,-23.92 h -2.8 z"
           style="font-style:italic;font-weight:300;-inkscape-font-specification:'Roobert, Light Italic'"
           id="path36677" />
        <path
           d="m 41.048125,-171.84 c 6.56,0 11.48,-5.16 11.48,-11.8 0,-5.2 -3.8,-9 -9.16,-9 -6.56,0 -11.48,5.16 -11.48,11.8 0,5.2 3.8,9 9.16,9 z m 0.16,-2.32 c -3.84,0 -6.64,-2.76 -6.64,-6.68 0,-5.36 3.64,-9.48 8.64,-9.48 3.84,0 6.64,2.76 6.64,6.68 0,5.36 -3.64,9.48 -8.64,9.48 z"
           style="font-style:italic;font-weight:300;-inkscape-font-specification:'Roobert, Light Italic'"
           id="path36679" />
        <path
           d="m 69.478125,-190 v -2.32 h -2.44 c -3.12,0 -5.08,1.48 -6.44,4.28 l 0.84,-4.28 h -2.52 l -3.92,20.16 h 2.52 l 1.68,-8.6 c 1,-5.16 2.96,-9.24 7.4,-9.24 z"
           style="font-style:italic;font-weight:300;-inkscape-font-specification:'Roobert, Light Italic'"
           id="path36681" />
        <path
           d="m 89.69125,-192.32 h -3.8 l -11.6,8.72 3.28,-16.88 h -2.56 l -5.52,28.32 h 2.56 l 1.56,-8.08 3.6,-2.68 6.4,10.76 h 2.92 l -7.28,-12.28 z"
           style="font-style:italic;font-weight:300;-inkscape-font-specification:'Roobert, Light Italic'"
           id="path36683" />
        <path
           d="m 109.68563,-200.48 -1.60001,8.16 h -9.519995 l 0.4,-2.12 c 0.48,-2.32 2.039995,-3.72 4.080005,-3.72 h 3.03999 l 0.48,-2.32 h -3 c -3.639995,0 -6.399995,2.32 -7.119995,6.04 l -0.4,2.12 h -4.52 v 2.32 h 4.08 l -3.48,17.84 h 2.52 l 3.48,-17.84 h 9.519995 l -3.47999,17.84 h 2.52 l 5.51999,-28.32 z"
           style="font-style:italic;font-weight:300;-inkscape-font-specification:'Roobert, Light Italic'"
           id="path36685" />
        <path
           d="m 122.29813,-171.84 c 6.55999,0 11.47999,-5.16 11.47999,-11.8 0,-5.2 -3.8,-9 -9.15999,-9 -6.56,0 -11.48,5.16 -11.48,11.8 0,5.2 3.8,9 9.16,9 z m 0.15999,-2.32 c -3.84,0 -6.64,-2.76 -6.64,-6.68 0,-5.36 3.64,-9.48 8.64,-9.48 3.84,0 6.64,2.76 6.64,6.68 0,5.36 -3.64,9.48 -8.64,9.48 z"
           style="font-style:italic;font-weight:300;-inkscape-font-specification:'Roobert, Light Italic'"
           id="path36687" />
        <path
           d="m 138.7525,-172.16 h 2.56 l 8.6,-17.04 2,17.04 h 2.56 l 9.92,-20.16 h -2.56 l -8.04,17.04 -1.96,-17.04 h -2.56 l -8.68,17.04 -1.4,-17.04 h -2.52 z"
           style="font-style:italic;font-weight:300;-inkscape-font-specification:'Roobert, Light Italic'"
           id="path36689" />
        <path
           d="m 174.22437,-172.16 h 2.68 l 4.44001,-22.88 4.95999,22.88 h 2.48 l 13.84,-22.88 -4.44,22.88 h 2.68 l 5.44,-28 h -3.39999 l -14.60001,24.04 -5.24,-24.04 h -3.4 z"
           style="font-style:italic;font-weight:300;-inkscape-font-specification:'Roobert, Light Italic'"
           id="path36691" />
        <path
           d="m 213.11125,-171.84 c 3.24,0 6.04,-1.56 7.68,-4.04 l -0.72,3.72 h 2.52 l 2.48,-12.8 c 0.88,-4.4 -2.44,-7.68 -7.44,-7.68 -4.28,0 -8.44,2.8 -9.24,6.64 h 2.52 c 0.32,-2.32 3.12,-4.32 6.24,-4.32 3.68,0 6.04,2.28 5.44,5.16 -0.12,0.6 -0.44,0.96 -1.28,0.96 h -5.44 c -5.04,0 -8.24,2 -9,5.92 -0.64,3.4 2.28,6.44 6.24,6.44 z m 0.28,-2.32 c -2.64,0 -4.28,-1.96 -3.84,-4.12 0.56,-2.56 2.64,-3.8 5.92,-3.8 h 6.52 l -0.12,0.6 c -0.96,4.72 -4.04,7.32 -8.48,7.32 z"
           style="font-style:italic;font-weight:300;-inkscape-font-specification:'Roobert, Light Italic'"
           id="path36693" />
        <path
           d="m 227.88875,-172.16 h 2.52 l 2.12,-10.84 c 0.8,-4.28 4.08,-7.4 7.84,-7.4 3.36,0 4.92,2.36 4.16,6.32 l -2.32,11.92 h 2.52 l 2.36,-12.24 c 0.96,-4.88 -1.4,-8.24 -5.88,-8.24 -3.2,0 -6.08,1.48 -7.68,4.52 l 0.8,-4.2 h -2.52 z"
           style="font-style:italic;font-weight:300;-inkscape-font-specification:'Roobert, Light Italic'"
           id="path36695" />
        <path
           d="m 256.54875,-171.84 c 3.24,0 6.04,-1.56 7.68,-4.04 l -0.72,3.72 h 2.52 l 2.48,-12.8 c 0.88,-4.4 -2.44,-7.68 -7.44,-7.68 -4.28,0 -8.44,2.8 -9.24,6.64 h 2.52 c 0.32,-2.32 3.12,-4.32 6.24,-4.32 3.68,0 6.04,2.28 5.44,5.16 -0.12,0.6 -0.44,0.96 -1.28,0.96 h -5.44 c -5.04,0 -8.24,2 -9,5.92 -0.64,3.4 2.28,6.44 6.24,6.44 z m 0.28,-2.32 c -2.64,0 -4.28,-1.96 -3.84,-4.12 0.56,-2.56 2.64,-3.8 5.92,-3.8 h 6.52 l -0.12,0.6 c -0.96,4.72 -4.04,7.32 -8.48,7.32 z"
           style="font-style:italic;font-weight:300;-inkscape-font-specification:'Roobert, Light Italic'"
           id="path36697" />
        <path
           d="m 271.28625,-164 h 9.08 c 4.32,0 8,-3.08 8.84,-7.36 l 4.08,-20.96 h -2.52 l -0.64,3.24 c -0.88,-2.08 -3.88,-3.56 -6.68,-3.56 -6,0 -10.28,4.12 -11.44,10.4 -1.12,5.8 2.32,10.4 7.76,10.4 3.16,0 6.32,-1.32 7.64,-3.28 l -0.72,3.76 c -0.56,2.92 -3,5.04 -5.84,5.04 h -9.56 z m 9.04,-10.16 c -4.04,0 -6.52,-3.56 -5.64,-8.08 0.96,-4.88 4,-8.08 8.36,-8.08 4.48,0 6.96,3.28 6.04,8.08 -0.96,4.88 -4.4,8.08 -8.76,8.08 z"
           style="font-style:italic;font-weight:300;-inkscape-font-specification:'Roobert, Light Italic'"
           id="path36699" />
        <path
           d="m 306.95625,-192.64 c -5.6,0 -10.12,3.96 -11.08,9.84 -1,6.32 2.72,10.96 8.6,10.96 4.76,0 8.44,-3.08 9.64,-6.68 h -2.64 c -1.08,2.56 -3.32,4.36 -6.68,4.36 -4.52,0 -6.96,-3.28 -6.48,-7.84 h 16.16 l 0.32,-1.32 c 1.16,-5.28 -2.16,-9.32 -7.84,-9.32 z m 5.4,8.32 h -13.56 c 1.16,-3.72 4,-6 7.8,-6 3.76,0 6.2,2.28 5.76,6 z"
           style="font-style:italic;font-weight:300;-inkscape-font-specification:'Roobert, Light Italic'"
           id="path36701" />
        <path
           d="m 317.26187,-172.16 h 2.52001 l 2.31999,-11.96 c 0.72,-3.68 3.36001,-6.28 7.04001,-6.28 3.03999,0 4.35999,2.36 3.59999,6.28 l -2.32,11.96 h 2.52 l 2.32,-11.96 c 0.72,-3.68 3.36,-6.28 7.04,-6.28 3.04001,0 4.4,2.36 3.64,6.28 l -2.32,11.96 h 2.52001 l 2.44,-12.52 c 0.91999,-4.72 -1.28001,-7.96 -5.40001,-7.96 -3,0 -6.15999,1.92 -7.32,4.48 -0.08,-2.68 -2.44,-4.48 -5.88,-4.48 -3.19999,0 -5.92,1.88 -7.07999,4.52 l 0.79999,-4.2 h -2.52 z"
           style="font-style:italic;font-weight:300;-inkscape-font-specification:'Roobert, Light Italic'"
           id="path36703" />
        <path
           d="m 363.675,-192.64 c -5.6,0 -10.12,3.96 -11.08,9.84 -1,6.32 2.72,10.96 8.6,10.96 4.76,0 8.44,-3.08 9.64,-6.68 h -2.64 c -1.08,2.56 -3.32,4.36 -6.68,4.36 -4.52,0 -6.96,-3.28 -6.48,-7.84 h 16.16 l 0.32,-1.32 c 1.16,-5.28 -2.16,-9.32 -7.84,-9.32 z m 5.4,8.32 h -13.56 c 1.16,-3.72 4,-6 7.8,-6 3.76,0 6.2,2.28 5.76,6 z"
           style="font-style:italic;font-weight:300;-inkscape-font-specification:'Roobert, Light Italic'"
           id="path36705" />
        <path
           d="m 374.06063,-172.16 h 2.51999 l 2.12,-10.84 c 0.80001,-4.28 4.08,-7.4 7.84,-7.4 3.36,0 4.92,2.36 4.16,6.32 l -2.32,11.92 h 2.52 l 2.36,-12.24 c 0.96,-4.88 -1.39999,-8.24 -5.88,-8.24 -3.19999,0 -6.07999,1.48 -7.68,4.52 l 0.80001,-4.2 h -2.52001 z"
           style="font-style:italic;font-weight:300;-inkscape-font-specification:'Roobert, Light Italic'"
           id="path36707" />
        <path
           d="m 402.69937,-198.92 -1.28,6.6 h -4.51999 v 2.32 h 4.07999 l -2.36,12 c -0.68,3.52 1.16001,5.84 4.64,5.84 h 3.16 l 0.44,-2.32 h -3.2 c -1.87999,0 -2.92,-1.4 -2.52,-3.52 l 2.36,-12 h 6.64 v -2.32 h -6.2 l 1.28001,-6.6 z"
           style="font-style:italic;font-weight:300;-inkscape-font-specification:'Roobert, Light Italic'"
           id="path36709" />
        <path
           d="m 421.25562,-172.16 h 17.04 l 0.48,-2.48 h -14.36 l 4.96001,-25.52 h -2.68001 z"
           style="font-style:italic;font-weight:300;-inkscape-font-specification:'Roobert, Light Italic'"
           id="path36711" />
        <path
           d="m 447.315,-200.48 -0.8,4.08 h 3.04 l 0.8,-4.08 z m -5.24,28.32 h 2.52 l 3.92,-20.16 h -2.52 z"
           style="font-style:italic;font-weight:300;-inkscape-font-specification:'Roobert, Light Italic'"
           id="path36713" />
        <path
           d="m 460.50312,-171.84 c 5.84,0 10.24001,-4.2 11.44,-10.4 1.12001,-5.84 -2.24,-10.4 -7.75999,-10.4 -2.96001,0 -6.08001,1.6 -7.80001,3.96 l 2.32,-11.8 h -2.51999 l -5.52001,28.32 h 2.52001 l 0.71999,-3.64 c 0.76,2.36 3.64,3.96 6.6,3.96 z m 0.4,-2.32 c -4.36,0 -7,-3.2 -6.03999,-8.08 0.95999,-4.88 4.39999,-8.08 8.76,-8.08 4.35999,0 6.59999,3.2 5.63999,8.08 -0.95999,4.88 -4,8.08 -8.36,8.08 z"
           style="font-style:italic;font-weight:300;-inkscape-font-specification:'Roobert, Light Italic'"
           id="path36715" />
        <path
           d="m 488.93125,-190 v -2.32 h -2.44 c -3.12,0 -5.08,1.48 -6.44,4.28 l 0.84,-4.28 h -2.52 l -3.92,20.16 h 2.52 l 1.68,-8.6 c 1,-5.16 2.96,-9.24 7.4,-9.24 z"
           style="font-style:italic;font-weight:300;-inkscape-font-specification:'Roobert, Light Italic'"
           id="path36717" />
        <path
           d="m 494.28312,-171.84 c 3.24,0 6.04,-1.56 7.68,-4.04 l -0.71999,3.72 h 2.51999 l 2.48001,-12.8 c 0.88,-4.4 -2.44,-7.68 -7.44,-7.68 -4.28001,0 -8.44,2.8 -9.24,6.64 h 2.51999 c 0.32,-2.32 3.12,-4.32 6.24,-4.32 3.68,0 6.04001,2.28 5.44,5.16 -0.12,0.6 -0.44,0.96 -1.28,0.96 h -5.44 c -5.04,0 -8.23999,2 -9,5.92 -0.64,3.4 2.28,6.44 6.24,6.44 z m 0.28001,-2.32 c -2.64,0 -4.28001,-1.96 -3.84001,-4.12 0.56,-2.56 2.64001,-3.8 5.92,-3.8 h 6.52 l -0.12,0.6 c -0.96,4.72 -4.04,7.32 -8.47999,7.32 z"
           style="font-style:italic;font-weight:300;-inkscape-font-specification:'Roobert, Light Italic'"
           id="path36719" />
        <path
           d="m 523.54062,-190 v -2.32 h -2.43999 c -3.12,0 -5.08001,1.48 -6.44001,4.28 l 0.84001,-4.28 h -2.52 l -3.92,20.16 h 2.51999 l 1.68,-8.6 c 1,-5.16 2.96001,-9.24 7.4,-9.24 z"
           style="font-style:italic;font-weight:300;-inkscape-font-specification:'Roobert, Light Italic'"
           id="path36721" />
        <path
           d="m 539.83375,-192.32 -9.6,17.48 -2.84,-17.48 h -2.64 l 3.64,20.92 -4.08,7.4 h 2.48 l 15.6,-28.32 z"
           style="font-style:italic;font-weight:300;-inkscape-font-specification:'Roobert, Light Italic'"
           id="path36723" />
        <path
           d="m 561.59687,-171.84 c 5.84,0 10.24,-4.2 11.44,-10.4 1.12001,-5.84 -2.24,-10.4 -7.75999,-10.4 -2.96001,0 -6.08001,1.6 -7.80001,3.96 l 2.32,-11.8 h -2.51999 l -5.52,28.32 h 2.52 l 0.72,-3.64 c 0.76,2.36 3.64,3.96 6.59999,3.96 z m 0.40001,-2.32 c -4.36,0 -7,-3.2 -6.04001,-8.08 0.96,-4.88 4.4,-8.08 8.76,-8.08 4.36,0 6.6,3.2 5.64,8.08 -0.95999,4.88 -4,8.08 -8.35999,8.08 z"
           style="font-style:italic;font-weight:300;-inkscape-font-specification:'Roobert, Light Italic'"
           id="path36725" />
        <path
           d="m 590.84937,-192.32 -9.6,17.48 -2.84,-17.48 h -2.64 l 3.64,20.92 -4.07999,7.4 h 2.48 l 15.59999,-28.32 z"
           style="font-style:italic;font-weight:300;-inkscape-font-specification:'Roobert, Light Italic'"
           id="path36727" />
        <path
           d="m 608.9325,-172.16 h 2.72 l 12,-23.92 2.68,23.92 h 2.8 l 14.12,-28 h -2.76 l -12.04,23.92 -2.8,-23.92 h -2.44 l -12.08,23.92 -2.72,-23.92 h -2.8 z"
           style="font-style:italic;font-weight:300;-inkscape-font-specification:'Roobert, Light Italic'"
           id="path36729" />
        <path
           d="m 647.21375,-172.16 h 2.72 l 12,-23.92 2.68,23.92 h 2.8 l 14.12,-28 h -2.76 l -12.04,23.92 -2.8,-23.92 h -2.44 l -12.08,23.92 -2.72,-23.92 h -2.8 z"
           style="font-style:italic;font-weight:300;-inkscape-font-specification:'Roobert, Light Italic'"
           id="path36731" />
        <path
           d="m 686.095,-172.16 h 2.68 l 4.96,-25.52 h 9.12 l 0.48,-2.48 h -20.96 l -0.48,2.48 h 9.16 z"
           style="font-style:italic;font-weight:300;-inkscape-font-specification:'Roobert, Light Italic'"
           id="path36733" />
      </g>
    </g>
  </g>
</svg>
